<svg width="14" height="14" viewBox="0 0 14 14" fill="none" xmlns="http://www.w3.org/2000/svg">
<path d="M7.09644 0.815918C3.68282 0.815918 0.912354 3.58639 0.912354 7C0.912354 10.4136 3.68282 13.1841 7.09644 13.1841C10.51 13.1841 13.2805 10.4136 13.2805 7C13.2805 3.58639 10.51 0.815918 7.09644 0.815918ZM7.09644 11.9473C4.36926 11.9473 2.14917 9.72718 2.14917 7C2.14917 4.27282 4.36926 2.05273 7.09644 2.05273C9.82362 2.05273 12.0437 4.27282 12.0437 7C12.0437 9.72718 9.82362 11.9473 7.09644 11.9473ZM9.49586 4.70571L5.85962 8.34195L4.69701 7.17934C4.45583 6.93816 4.06624 6.93816 3.82506 7.17934C3.58388 7.42052 3.58388 7.81011 3.82506 8.05129L5.42673 9.65297C5.66791 9.89415 6.05751 9.89415 6.29869 9.65297L10.374 5.57766C10.6152 5.33648 10.6152 4.94688 10.374 4.70571C10.1328 4.46453 9.73704 4.46453 9.49586 4.70571Z" fill="#1DCA46"/>
</svg>
