<svg width="9" height="14" viewBox="0 0 9 14" fill="none" xmlns="http://www.w3.org/2000/svg">
<path d="M4.91626 13.7894C3.73848 13.7894 2.77737 13.6033 2.03293 13.2311C1.28848 12.8588 0.91626 12.3783 0.91626 11.7894C0.91626 11.4005 1.07737 11.0616 1.39959 10.7727C1.72182 10.4838 2.16626 10.2561 2.73293 10.0894L3.11626 11.3561C2.92737 11.4116 2.75515 11.4811 2.59959 11.5644C2.44404 11.6477 2.33848 11.7227 2.28293 11.7894C2.42737 11.9672 2.7607 12.1227 3.28293 12.2561C3.80515 12.3894 4.34959 12.4561 4.91626 12.4561C5.48293 12.4561 6.03015 12.3894 6.55793 12.2561C7.0857 12.1227 7.42182 11.9672 7.56626 11.7894C7.5107 11.7227 7.40515 11.6477 7.24959 11.5644C7.09404 11.4811 6.92182 11.4116 6.73293 11.3561L7.11626 10.0894C7.68293 10.2561 8.12459 10.4838 8.44126 10.7727C8.75793 11.0616 8.91626 11.4005 8.91626 11.7894C8.91626 12.3783 8.54404 12.8588 7.79959 13.2311C7.05515 13.6033 6.09404 13.7894 4.91626 13.7894ZM4.91626 9.33939C5.11626 8.97272 5.32737 8.63661 5.54959 8.33105C5.77182 8.0255 5.98848 7.73383 6.19959 7.45605C6.6107 6.92272 6.93848 6.44217 7.18293 6.01439C7.42737 5.58661 7.54959 5.05605 7.54959 4.42272C7.54959 3.68939 7.29404 3.06717 6.78293 2.55605C6.27182 2.04494 5.64959 1.78939 4.91626 1.78939C4.18293 1.78939 3.5607 2.04494 3.04959 2.55605C2.53848 3.06717 2.28293 3.68939 2.28293 4.42272C2.28293 5.05605 2.40515 5.58661 2.64959 6.01439C2.89404 6.44217 3.22182 6.92272 3.63293 7.45605C3.84404 7.73383 4.0607 8.0255 4.28293 8.33105C4.50515 8.63661 4.71626 8.97272 4.91626 9.33939ZM4.91626 11.7894C4.79404 11.7894 4.68293 11.7533 4.58293 11.6811C4.48293 11.6088 4.4107 11.5116 4.36626 11.3894C4.1107 10.6005 3.78848 9.93939 3.39959 9.40605C3.0107 8.87272 2.63293 8.36161 2.26626 7.87272C1.9107 7.38383 1.60237 6.87828 1.34126 6.35605C1.08015 5.83383 0.949593 5.18939 0.949593 4.42272C0.949593 3.31161 1.33293 2.37272 2.09959 1.60605C2.86626 0.839388 3.80515 0.456055 4.91626 0.456055C6.02737 0.456055 6.96626 0.839388 7.73293 1.60605C8.49959 2.37272 8.88293 3.31161 8.88293 4.42272C8.88293 5.18939 8.75515 5.83383 8.49959 6.35605C8.24404 6.87828 7.93293 7.38383 7.56626 7.87272C7.2107 8.36161 6.8357 8.87272 6.44126 9.40605C6.04682 9.93939 5.72182 10.6005 5.46626 11.3894C5.42182 11.5116 5.34959 11.6088 5.24959 11.6811C5.14959 11.7533 5.03848 11.7894 4.91626 11.7894ZM4.91626 5.83939C5.30515 5.83939 5.63848 5.7005 5.91626 5.42272C6.19404 5.14494 6.33293 4.81161 6.33293 4.42272C6.33293 4.03383 6.19404 3.7005 5.91626 3.42272C5.63848 3.14494 5.30515 3.00605 4.91626 3.00605C4.52737 3.00605 4.19404 3.14494 3.91626 3.42272C3.63848 3.7005 3.49959 4.03383 3.49959 4.42272C3.49959 4.81161 3.63848 5.14494 3.91626 5.42272C4.19404 5.7005 4.52737 5.83939 4.91626 5.83939Z" fill="#963BFC"/>
</svg>
