<svg width="21" height="26" viewBox="0 0 21 26" fill="none" xmlns="http://www.w3.org/2000/svg">
<path d="M14.9041 6.20038L15.1887 6.21466C16.891 6.33014 19.2768 7.42061 20.5553 9.29323C20.6489 9.4303 20.7128 9.58543 20.7428 9.74865C20.7729 9.91187 20.7685 10.0796 20.73 10.241C20.6914 10.4024 20.6195 10.554 20.5189 10.686C20.4183 10.818 20.2912 10.9275 20.1458 11.0075C20.0863 11.0408 19.7029 11.1956 19.5541 11.2658C19.251 11.4073 18.963 11.5792 18.6946 11.7789C17.9637 12.3277 17.566 12.9801 17.5732 13.7956C17.5851 14.8492 17.9768 15.5265 18.6529 15.9932C18.9006 16.1635 19.172 16.2944 19.4458 16.3861C19.5958 16.4373 19.9529 16.5242 19.9744 16.5313C20.2053 16.6142 20.4049 16.7665 20.546 16.9672C20.6871 17.168 20.7627 17.4074 20.7625 17.6527C20.7625 20.773 17.1434 25.2491 14.4696 25.2491C13.5291 25.2491 12.9553 25.1408 12.1089 24.8741L11.9922 24.8372C11.4411 24.6634 11.1565 24.6087 10.6434 24.6087C10.0244 24.6087 9.61606 24.6801 8.8363 24.8908L8.60178 24.9539C7.91726 25.1361 7.45416 25.223 6.81607 25.2491C3.54346 25.2491 0.524414 19.1861 0.524414 14.4492C0.524414 9.84203 2.6506 6.21109 6.81726 6.21109C7.17083 6.21109 7.52916 6.26466 7.8994 6.36347C8.37916 6.49085 8.82083 6.67299 9.44225 6.96823C10.3792 7.41347 10.5708 7.49204 10.6434 7.49204H10.6625C10.6982 7.48847 10.8149 7.43609 11.9196 6.94799C13.1827 6.39204 14.1387 6.13252 15.1887 6.21466L14.903 6.20038H14.9041Z" fill="white"/>
<path d="M13.6196 0.249146C13.9354 0.249146 14.2382 0.37457 14.4614 0.597827C14.6847 0.821084 14.8101 1.12389 14.8101 1.43962C14.8101 2.38682 14.4338 3.29522 13.7641 3.965C13.0943 4.63477 12.1859 5.01104 11.2387 5.01104C10.9229 5.01104 10.6201 4.88562 10.3969 4.66236C10.1736 4.4391 10.0482 4.1363 10.0482 3.82057C10.0482 2.87337 10.4245 1.96496 11.0942 1.29519C11.764 0.625419 12.6724 0.249146 13.6196 0.249146Z" fill="white"/>
</svg>
