<svg width="22" height="26" viewBox="0 0 22 26" fill="none" xmlns="http://www.w3.org/2000/svg">
<path d="M10.5353 0.730713C9.44804 0.730713 8.56566 1.56582 8.56566 2.59479V3.45887C5.16901 4.28749 2.65688 7.19882 2.65688 10.6725V18.1288L0.64113 19.5657H0.638566C0.452246 19.678 0.298866 19.8329 0.192624 20.0162C0.086381 20.1995 0.0307093 20.4052 0.0307618 20.6142C0.0307618 20.9438 0.169102 21.2599 0.415349 21.493C0.661596 21.726 0.995578 21.8569 1.34382 21.8569H10.5353H19.7267C20.0749 21.8569 20.4089 21.726 20.6552 21.493C20.9014 21.2599 21.0397 20.9438 21.0397 20.6142C21.0398 20.4052 20.9841 20.1995 20.8779 20.0162C20.7716 19.8329 20.6183 19.678 20.4319 19.5657L18.4136 18.1288V10.6725C18.4136 7.19882 15.9015 4.28749 12.5048 3.45887V2.59479C12.5048 1.56582 11.6225 0.730713 10.5353 0.730713ZM7.90913 23.0997C7.90913 24.4666 9.09089 25.5851 10.5353 25.5851C11.9796 25.5851 13.1614 24.4666 13.1614 23.0997H7.90913Z" fill="white"/>
</svg>
