<svg width="18" height="23" viewBox="0 0 18 23" fill="none" xmlns="http://www.w3.org/2000/svg">
<path d="M13.0286 1.2793V5.81477M5.02863 1.2793V5.81477M1.02863 10.3502H17.0286M4.02863 13.7518H4.04163M7.03862 13.7518H7.04362M10.0386 13.7518H10.0436M13.0436 13.7518H13.0486M10.0436 17.1534H10.0486M4.03862 17.1534H4.04362M7.03862 17.1534H7.04362M1.02863 5.81477C1.02863 5.21333 1.23934 4.63652 1.61441 4.21124C1.98948 3.78595 2.49819 3.54703 3.02863 3.54703H15.0286C15.5591 3.54703 16.0678 3.78595 16.4428 4.21124C16.8179 4.63652 17.0286 5.21333 17.0286 5.81477V19.4212C17.0286 20.0226 16.8179 20.5994 16.4428 21.0247C16.0678 21.45 15.5591 21.6889 15.0286 21.6889H3.02863C2.49819 21.6889 1.98948 21.45 1.61441 21.0247C1.23934 20.5994 1.02863 20.0226 1.02863 19.4212V5.81477Z" stroke="#963BFC" stroke-width="1.5" stroke-linecap="round" stroke-linejoin="round"/>
</svg>
