<svg width="16" height="16" viewBox="0 0 16 16" fill="none" xmlns="http://www.w3.org/2000/svg">
<path d="M8.34277 15.3086C7.42352 15.3086 6.51327 15.1275 5.66399 14.7758C4.81471 14.424 4.04304 13.9084 3.39303 13.2583C2.74302 12.6083 2.2274 11.8367 1.87562 10.9874C1.52383 10.1381 1.34277 9.22785 1.34277 8.30859C1.34277 7.38934 1.52383 6.47909 1.87562 5.62981C2.2274 4.78053 2.74302 4.00886 3.39303 3.35885C4.04304 2.70884 4.81471 2.19322 5.66399 1.84144C6.51327 1.48965 7.42352 1.30859 8.34277 1.30859M8.34277 15.3086C9.26203 15.3086 10.1723 15.1275 11.0216 14.7758C11.8708 14.424 12.6425 13.9084 13.2925 13.2583C13.9425 12.6083 14.4581 11.8367 14.8099 10.9874C15.1617 10.1381 15.3428 9.22785 15.3428 8.30859C15.3428 7.38934 15.1617 6.47909 14.8099 5.62981C14.4581 4.78053 13.9425 4.00886 13.2925 3.35885C12.6425 2.70884 11.8708 2.19322 11.0216 1.84144C10.1723 1.48965 9.26203 1.30859 8.34277 1.30859M8.34277 15.3086V1.30859M8.34277 5.97534L11.9594 2.35867M8.34277 10.0976L14.075 4.3654M8.34277 14.2197L15.2261 7.33637" stroke="white" stroke-linecap="round" stroke-linejoin="round"/>
</svg>
