<svg width="20" height="19" viewBox="0 0 20 19" fill="none" xmlns="http://www.w3.org/2000/svg">
<path d="M13.0286 1.70166V3.96939M13.0286 8.50486V10.7726M13.0286 15.3081V17.5758M3.02863 1.70166H17.0286C17.5591 1.70166 18.0678 1.94058 18.4428 2.36586C18.8179 2.79115 19.0286 3.36795 19.0286 3.96939V7.371C18.4982 7.371 17.9895 7.60992 17.6144 8.0352C17.2393 8.46048 17.0286 9.03729 17.0286 9.63873C17.0286 10.2402 17.2393 10.817 17.6144 11.2423C17.9895 11.6675 18.4982 11.9065 19.0286 11.9065V15.3081C19.0286 15.9095 18.8179 16.4863 18.4428 16.9116C18.0678 17.3369 17.5591 17.5758 17.0286 17.5758H3.02863C2.49819 17.5758 1.98948 17.3369 1.61441 16.9116C1.23934 16.4863 1.02863 15.9095 1.02863 15.3081V11.9065C1.55906 11.9065 2.06777 11.6675 2.44284 11.2423C2.81791 10.817 3.02863 10.2402 3.02863 9.63873C3.02863 9.03729 2.81791 8.46048 2.44284 8.0352C2.06777 7.60992 1.55906 7.371 1.02863 7.371V3.96939C1.02863 3.36795 1.23934 2.79115 1.61441 2.36586C1.98948 1.94058 2.49819 1.70166 3.02863 1.70166Z" stroke="#963BFC" stroke-width="1.5" stroke-linecap="round" stroke-linejoin="round"/>
</svg>
