<svg width="20" height="20" viewBox="0 0 20 20" fill="none" xmlns="http://www.w3.org/2000/svg">
<path d="M4.10423 5.44482H3.10423C2.5738 5.44482 2.06509 5.65554 1.69002 6.03061C1.31495 6.40568 1.10423 6.91439 1.10423 7.44482V16.4448C1.10423 16.9753 1.31495 17.484 1.69002 17.859C2.06509 18.2341 2.5738 18.4448 3.10423 18.4448H12.1042C12.6347 18.4448 13.1434 18.2341 13.5184 17.859C13.8935 17.484 14.1042 16.9753 14.1042 16.4448V15.4448M13.1042 3.44482L16.1042 6.44482M17.4892 5.02993C17.8831 4.63608 18.1043 4.10191 18.1043 3.54493C18.1043 2.98795 17.8831 2.45378 17.4892 2.05993C17.0954 1.66608 16.5612 1.44482 16.0042 1.44482C15.4472 1.44482 14.9131 1.66608 14.5192 2.05993L6.10423 10.4449V13.4449H9.10423L17.4892 5.02993Z" stroke="#007AFF" stroke-width="2" stroke-linecap="round" stroke-linejoin="round"/>
</svg>
