<svg width="21" height="21" viewBox="0 0 21 21" fill="none" xmlns="http://www.w3.org/2000/svg">
<path d="M9.42149 8.90955C9.04647 9.28469 8.83584 9.79345 8.83594 10.3239C8.83603 10.8543 9.04684 11.363 9.42199 11.738C9.79714 12.1131 10.3059 12.3237 10.8363 12.3236C11.3668 12.3235 11.8755 12.1127 12.2505 11.7375M15.5175 14.9955C14.1148 15.8732 12.4912 16.3335 10.8365 16.3225C7.23655 16.3225 4.23655 14.3225 1.83655 10.3225C3.10855 8.20254 4.54855 6.64454 6.15655 5.64854M9.01655 4.50254C9.61559 4.38127 10.2254 4.32096 10.8365 4.32254C14.4365 4.32254 17.4365 6.32254 19.8365 10.3225C19.1705 11.4325 18.4575 12.3895 17.6985 13.1925M1.83655 1.32251L19.8365 19.3225" stroke="#B7B7B7" stroke-width="2" stroke-linecap="round" stroke-linejoin="round"/>
</svg>
