<svg width="23" height="17" viewBox="0 0 23 17" fill="none" xmlns="http://www.w3.org/2000/svg">
<path d="M11.8376 0.32251C16.1276 0.32251 19.7006 2.75151 22.5026 7.47651L22.7226 7.85551L22.7676 7.95551L22.7976 8.03851L22.8116 8.09351L22.8256 8.17551L22.8366 8.27551V8.38551L22.8226 8.49651C22.816 8.53364 22.8073 8.57037 22.7966 8.60651L22.7576 8.71451L22.7216 8.78951L22.7056 8.81951C19.9416 13.6555 16.4056 16.1995 12.1506 16.3185L11.8376 16.3225C7.44157 16.3225 3.80057 13.7735 0.969568 8.81851C0.883278 8.66745 0.837891 8.49648 0.837891 8.32251C0.837891 8.14854 0.883278 7.97757 0.969568 7.82651C3.80057 2.87151 7.44157 0.32251 11.8376 0.32251ZM11.8376 5.32251C11.0419 5.32251 10.2789 5.63858 9.71625 6.20119C9.15364 6.7638 8.83757 7.52686 8.83757 8.32251C8.83757 9.11816 9.15364 9.88122 9.71625 10.4438C10.2789 11.0064 11.0419 11.3225 11.8376 11.3225C12.6332 11.3225 13.3963 11.0064 13.9589 10.4438C14.5215 9.88122 14.8376 9.11816 14.8376 8.32251C14.8376 7.52686 14.5215 6.7638 13.9589 6.20119C13.3963 5.63858 12.6332 5.32251 11.8376 5.32251Z" fill="#B7B7B7"/>
</svg>
