<svg width="15" height="15" viewBox="0 0 15 15" fill="none" xmlns="http://www.w3.org/2000/svg">
<path d="M7.7345 14.2261C7.57116 14.2261 7.40491 14.1931 7.23575 14.1271C7.06658 14.0611 6.91783 13.9554 6.7895 13.8102L5.582 12.5627C4.34533 11.2822 3.22825 10.0116 2.23075 8.75083C1.23325 7.4901 0.734497 6.10066 0.734497 4.58251C0.734497 3.34159 1.102 2.30528 1.837 1.4736C2.572 0.641916 3.48783 0.226074 4.5845 0.226074C5.20283 0.226074 5.78616 0.374589 6.3345 0.671619C6.88283 0.968648 7.3495 1.37459 7.7345 1.88944C8.1195 1.37459 8.58616 0.968648 9.1345 0.671619C9.68283 0.374589 10.2662 0.226074 10.8845 0.226074C11.9812 0.226074 12.897 0.641916 13.632 1.4736C14.367 2.30528 14.7345 3.34159 14.7345 4.58251C14.7345 6.10066 14.2387 7.4934 13.247 8.76073C12.2553 10.0281 11.1295 11.302 9.8695 12.5825L8.6795 13.8102C8.55116 13.9554 8.40241 14.0611 8.23325 14.1271C8.06408 14.1931 7.89783 14.2261 7.7345 14.2261ZM7.0695 3.4736C6.73116 2.93234 6.3695 2.5198 5.9845 2.23598C5.5995 1.95215 5.13283 1.81023 4.5845 1.81023C3.8845 1.81023 3.30116 2.07426 2.8345 2.60231C2.36783 3.13036 2.1345 3.79043 2.1345 4.58251C2.1345 5.26898 2.35033 5.99835 2.782 6.77063C3.21366 7.54291 3.72991 8.29208 4.33075 9.01815C4.93158 9.74423 5.54991 10.4241 6.18575 11.0578C6.82158 11.6914 7.33783 12.2129 7.7345 12.6221C8.13116 12.2129 8.64741 11.6914 9.28325 11.0578C9.91908 10.4241 10.5374 9.74423 11.1382 9.01815C11.7391 8.29208 12.2553 7.54291 12.687 6.77063C13.1187 5.99835 13.3345 5.26898 13.3345 4.58251C13.3345 3.79043 13.1012 3.13036 12.6345 2.60231C12.1678 2.07426 11.5845 1.81023 10.8845 1.81023C10.3362 1.81023 9.8695 1.95215 9.4845 2.23598C9.0995 2.5198 8.73783 2.93234 8.3995 3.4736C8.31783 3.60561 8.21866 3.70462 8.102 3.77063C7.98533 3.83664 7.86283 3.86964 7.7345 3.86964C7.60616 3.86964 7.48366 3.83664 7.367 3.77063C7.25033 3.70462 7.15116 3.60561 7.0695 3.4736Z" fill="#B7B7B7"/>
</svg>
