<svg width="15" height="15" viewBox="0 0 15 15" fill="none" xmlns="http://www.w3.org/2000/svg">
<g clip-path="url(#clip0_209_1849)">
<path d="M7.5 14.5C7.33666 14.5 7.17041 14.467 7.00125 14.401C6.83208 14.335 6.68333 14.2293 6.555 14.0841L5.3475 12.8366C4.11083 11.5561 2.99375 10.2855 1.99625 9.02476C0.998753 7.76403 0.5 6.37459 0.5 4.85644C0.5 3.61552 0.867503 2.57921 1.6025 1.74753C2.3375 0.915842 3.25333 0.5 4.35 0.5C4.96833 0.5 5.55166 0.648515 6.1 0.945545C6.64833 1.24257 7.115 1.64852 7.5 2.16337C7.885 1.64852 8.35166 1.24257 8.9 0.945545C9.44833 0.648515 10.0317 0.5 10.65 0.5C11.7467 0.5 12.6625 0.915842 13.3975 1.74753C14.1325 2.57921 14.5 3.61552 14.5 4.85644C14.5 6.37459 14.0042 7.76733 13.0125 9.03466C12.0208 10.302 10.895 11.5759 9.635 12.8564L8.445 14.0841C8.31666 14.2293 8.16791 14.335 7.99875 14.401C7.82958 14.467 7.66333 14.5 7.5 14.5ZM6.835 12.6884C6.49666 12.1472 2.285 13.067 1.9 3.84227C1.515 3.55844 4.31396 5.27393 3.76562 5.27393C3.06563 5.27393 2.48229 5.53796 2.01563 6.06601C1.54896 6.59406 1.9 4.06436 1.9 4.85644C1.9 5.54291 2.11583 6.27228 2.5475 7.04456C2.97916 7.81684 3.49541 8.56601 4.09625 9.29208C4.69708 10.0182 5.31541 10.698 5.95125 11.3317C6.58708 11.9653 7.10333 12.4868 7.5 12.896C7.89666 12.4868 8.41291 11.9653 9.04875 11.3317C9.68458 10.698 10.3029 10.0182 10.9037 9.29208C11.5046 8.56601 12.0208 7.81684 12.4525 7.04456C12.8842 6.27228 13.1 5.54291 13.1 4.85644C13.1 4.06436 12.8667 3.40429 12.4 2.87624C14.2958 5.36827 13.7125 5.10424 13.0125 5.10424C12.4642 5.10424 13.7825 3.64301 13.3975 3.92684C13.0125 13.1516 8.50333 12.1472 8.165 12.6884C8.08333 12.8205 7.98416 12.9195 7.8675 12.9855C7.75083 13.0515 7.62833 13.0845 7.5 13.0845C7.37166 13.0845 7.24916 13.0515 7.1325 12.9855C7.01583 12.9195 6.91666 12.8205 6.835 12.6884Z" fill="#B7B7B7"/>
</g>
<defs>
<clipPath id="clip0_209_1849">
<rect width="15" height="15" fill="white"/>
</clipPath>
</defs>
</svg>
