<svg width="26" height="26" viewBox="0 0 26 26" fill="none" xmlns="http://www.w3.org/2000/svg">
<g clip-path="url(#clip0_1800_651)">
<path d="M5 6.3332C5 6.68679 5.14047 7.0259 5.39049 7.27592C5.64051 7.52595 5.97962 7.66641 6.33321 7.66641C6.68679 7.66641 7.0259 7.52595 7.27592 7.27592C7.52595 7.0259 7.66641 6.68679 7.66641 6.3332C7.66641 5.97962 7.52595 5.64051 7.27592 5.39049C7.0259 5.14046 6.68679 5 6.33321 5C5.97962 5 5.64051 5.14046 5.39049 5.39049C5.14047 5.64051 5 5.97962 5 6.3332Z" stroke="#B7B7B7" stroke-width="1.5" stroke-linecap="round" stroke-linejoin="round"/>
<path d="M0.925293 5.17271V12.068C0.925444 12.7752 1.20646 13.4533 1.70655 13.9532L11.9855 24.2322C12.5881 24.8346 13.4052 25.1731 14.2573 25.1731C15.1094 25.1731 15.9265 24.8346 16.5291 24.2322L23.9843 16.7769C24.5868 16.1744 24.9252 15.3572 24.9252 14.5051C24.9252 13.6531 24.5868 12.8359 23.9843 12.2334L13.7053 1.95435C13.2054 1.45427 12.5273 1.17325 11.8202 1.1731H4.9249C3.86414 1.1731 2.84682 1.59448 2.09675 2.34456C1.34668 3.09463 0.925293 4.11194 0.925293 5.17271Z" stroke="#B7B7B7" stroke-width="1.5" stroke-linecap="round" stroke-linejoin="round"/>
<path d="M13.5903 15.6344L11.5905 17.1716L12.2997 14.6958L10.2573 13.172H12.793L13.5903 10.7722L14.3875 13.172H16.9233L14.8808 14.6958L15.5901 17.1716L13.5903 15.6344Z" stroke="#B7B7B7" stroke-width="1.5" stroke-linecap="round" stroke-linejoin="round"/>
</g>
<defs>
<clipPath id="clip0_1800_651">
<rect width="26" height="26" fill="white"/>
</clipPath>
</defs>
</svg>
