<svg width="26" height="26" viewBox="0 0 26 26" fill="none" xmlns="http://www.w3.org/2000/svg">
<path d="M8.57495 6.95679V5.45679C8.57495 4.66114 8.25888 3.89808 7.69627 3.33547C7.13366 2.77286 6.3706 2.45679 5.57495 2.45679C4.7793 2.45679 4.01624 2.77286 3.45363 3.33547C2.89102 3.89808 2.57495 4.66114 2.57495 5.45679M17.575 6.95679V5.45679C17.575 4.66114 17.891 3.89808 18.4536 3.33547C19.0162 2.77286 19.7793 2.45679 20.575 2.45679C21.3706 2.45679 22.1337 2.77286 22.6963 3.33547C23.2589 3.89808 23.575 4.66114 23.575 5.45679M1.07495 24.9568L6.28295 13.2388C6.51861 12.7083 6.9031 12.2576 7.3898 11.9413C7.8765 11.625 8.4445 11.4567 9.02495 11.4568H17.125C17.7054 11.4567 18.2734 11.625 18.7601 11.9413C19.2468 12.2576 19.6313 12.7083 19.867 13.2388L25.075 24.9568M4.36293 17.5529C4.59609 17.4943 4.83508 17.4621 5.07543 17.4569C5.86593 17.4434 6.61443 17.7239 7.07493 18.2069C7.53543 18.6869 8.28393 18.9674 9.07443 18.9569C9.86493 18.9674 10.6134 18.6869 11.0754 18.2069C11.5359 17.7239 12.2844 17.4434 13.0749 17.4569C13.8654 17.4434 14.6139 17.7239 15.0744 18.2069C15.5364 18.6869 16.2849 18.9674 17.0754 18.9569C17.8659 18.9674 18.6144 18.6869 19.0749 18.2069C19.5354 17.7239 20.2839 17.4434 21.0744 17.4569C21.3159 17.4614 21.5544 17.4944 21.7824 17.5529M13.075 6.95679V0.956787" stroke="#963BFC" stroke-width="1.5" stroke-linecap="round" stroke-linejoin="round"/>
</svg>
