<svg width="26" height="26" viewBox="0 0 26 26" fill="none" xmlns="http://www.w3.org/2000/svg">
<path d="M13.0137 0.249158C15.8765 0.245107 18.6532 1.22778 20.8762 3.03166C21.0166 3.14535 21.1307 3.28812 21.2106 3.45014C21.2905 3.61215 21.3343 3.78955 21.3391 3.97013C21.3438 4.15072 21.3094 4.33018 21.2381 4.49617C21.1668 4.66216 21.0604 4.81073 20.9262 4.93166L19.0387 6.63415C18.8243 6.82724 18.5497 6.94019 18.2615 6.95386C17.9733 6.96753 17.6892 6.88107 17.4575 6.70916C16.1865 5.77503 14.6534 5.26538 13.0762 5.25268C11.4989 5.23997 9.95781 5.72486 8.67199 6.63839C7.38616 7.55192 6.42107 8.84758 5.91396 10.3411C5.40685 11.8347 5.38353 13.4501 5.84732 14.9577C6.3111 16.4653 7.23838 17.7883 8.4973 18.7385C9.75622 19.6888 11.2827 20.218 12.8597 20.2508C14.4366 20.2836 15.9838 19.8185 17.2812 18.9214C18.5786 18.0244 19.5601 16.7411 20.0862 15.2541L20.0875 15.2492H15.5125C15.2065 15.2488 14.9113 15.1363 14.6828 14.9328C14.4543 14.7294 14.3083 14.4493 14.2725 14.1454L14.2637 13.9992V11.4992C14.2637 11.1676 14.3954 10.8497 14.6298 10.6153C14.8643 10.3808 15.1822 10.2492 15.5137 10.2492H24.195C24.5027 10.2491 24.7996 10.3626 25.0289 10.5679C25.2581 10.7732 25.4036 11.0558 25.4375 11.3617C25.4875 11.8204 25.5137 12.2829 25.5137 12.7492C25.5137 19.6529 19.9175 25.2491 13.0137 25.2491C6.10998 25.2491 0.513733 19.6529 0.513733 12.7492C0.513733 5.84541 6.10998 0.249158 13.0137 0.249158Z" fill="#FF0000"/>
</svg>
