<svg width="26" height="26" viewBox="0 0 26 26" fill="none" xmlns="http://www.w3.org/2000/svg">
<path d="M2.33973 2.486H5.1628M3.75127 1.07446V3.89753M12.9263 1.07446L12.2205 3.89753M22.1012 2.486H24.9243M23.5128 1.07446V3.89753M17.8666 8.13214L16.4551 9.54368M22.1012 13.7783L24.9243 13.0725M22.1012 22.2475H24.9243M23.5128 20.836V23.659M16.4551 18.7441L7.2547 9.54368L1.05806 23.0662C0.935585 23.3287 0.896861 23.6226 0.947147 23.9079C0.997433 24.1932 1.13429 24.4562 1.33915 24.661C1.54401 24.8659 1.80694 25.0027 2.09225 25.053C2.37757 25.1033 2.67144 25.0646 2.93399 24.9421L16.4551 18.7441Z" stroke="#B7B7B7" stroke-width="1.5" stroke-linecap="round" stroke-linejoin="round"/>
</svg>
