<svg width="26" height="27" viewBox="0 0 26 27" fill="none" xmlns="http://www.w3.org/2000/svg">
<path d="M9.22488 25.5156V17.5156C9.22488 16.8084 9.50584 16.1301 10.0059 15.63C10.506 15.1299 11.1843 14.849 11.8916 14.849H14.5582C15.2655 14.849 15.9437 15.1299 16.4438 15.63C16.9439 16.1301 17.2249 16.8084 17.2249 17.5156V25.5156M3.89155 13.5156H1.22488L13.2249 1.51562L25.2249 13.5156H22.5582V22.849C22.5582 23.5562 22.2773 24.2345 21.7772 24.7346C21.2771 25.2347 20.5988 25.5156 19.8916 25.5156H6.55822C5.85097 25.5156 5.1727 25.2347 4.6726 24.7346C4.1725 24.2345 3.89155 23.5562 3.89155 22.849V13.5156Z" stroke="#B7B7B7" stroke-width="1.5" stroke-linecap="round" stroke-linejoin="round"/>
</svg>
