<svg width="19" height="19" viewBox="0 0 19 19" fill="none" xmlns="http://www.w3.org/2000/svg">
<path d="M9.67188 0.32251C14.6426 0.32251 18.6719 4.35181 18.6719 9.32251C18.6719 11.7095 17.7237 13.9986 16.0358 15.6865C14.348 17.3743 12.0588 18.3225 9.67188 18.3225C7.28493 18.3225 4.99574 17.3743 3.30791 15.6865C1.62009 13.9986 0.671875 11.7095 0.671875 9.32251C0.671875 4.35181 4.70118 0.32251 9.67188 0.32251ZM11.4719 4.82251C10.8103 4.8224 10.1716 5.06522 9.67723 5.50488C9.18283 5.94453 8.86706 6.55041 8.78988 7.20751L8.77637 7.36411L8.77187 7.52251L8.77637 7.68091C8.79348 7.96801 8.85467 8.24251 8.95367 8.49811L9.03467 8.68621L5.88467 11.8362L5.81087 11.9208C5.68842 12.0786 5.62195 12.2727 5.62195 12.4725C5.62195 12.6723 5.68842 12.8664 5.81087 13.0242L5.88558 13.1088L7.23558 14.4588L7.32017 14.5335C7.47801 14.656 7.6721 14.7224 7.87187 14.7224C8.07165 14.7224 8.26574 14.656 8.42357 14.5335L8.50817 14.4588L8.58287 14.3742C8.70533 14.2164 8.7718 14.0223 8.7718 13.8225C8.7718 13.6227 8.70533 13.4286 8.58287 13.2708L8.50817 13.1862L7.79537 12.4725L8.32187 11.946L9.03557 12.6588L9.12017 12.7335C9.29335 12.8677 9.50954 12.9342 9.72821 12.9204C9.94688 12.9066 10.153 12.8135 10.3079 12.6586C10.4629 12.5036 10.556 12.2975 10.5698 12.0788C10.5836 11.8602 10.5171 11.644 10.3829 11.4708L10.3082 11.3862L9.59538 10.6725L10.3082 9.95971C10.6738 10.134 11.0741 10.2239 11.4792 10.2225C11.8843 10.2211 12.2839 10.1286 12.6483 9.95186C13.0128 9.77507 13.3329 9.51854 13.5848 9.20127C13.8366 8.88399 14.0139 8.5141 14.1034 8.11901C14.1929 7.72392 14.1923 7.31376 14.1018 6.91891C14.0112 6.52406 13.8329 6.15465 13.5802 5.83806C13.3275 5.52146 13.0068 5.26579 12.6418 5.08999C12.2768 4.9142 11.877 4.82278 11.4719 4.82251ZM11.4719 6.62251C11.7106 6.62251 11.9395 6.71733 12.1083 6.88611C12.2771 7.0549 12.3719 7.28381 12.3719 7.52251C12.3719 7.7612 12.2771 7.99012 12.1083 8.15891C11.9395 8.32769 11.7106 8.42251 11.4719 8.42251C11.2332 8.42251 11.0043 8.32769 10.8355 8.15891C10.6667 7.99012 10.5719 7.7612 10.5719 7.52251C10.5719 7.28381 10.6667 7.0549 10.8355 6.88611C11.0043 6.71733 11.2332 6.62251 11.4719 6.62251Z" fill="#B7B7B7"/>
</svg>
