<svg width="16" height="13" viewBox="0 0 16 13" fill="none" xmlns="http://www.w3.org/2000/svg">
<path d="M0.772614 2.59706C0.772614 2.1845 0.936502 1.78884 1.22823 1.49712C1.51995 1.20539 1.91561 1.0415 2.32817 1.0415H13.2171C13.6296 1.0415 14.0253 1.20539 14.317 1.49712C14.6087 1.78884 14.7726 2.1845 14.7726 2.59706M0.772614 2.59706V10.3748C0.772614 10.7874 0.936502 11.1831 1.22823 11.4748C1.51995 11.7665 1.91561 11.9304 2.32817 11.9304H13.2171C13.6296 11.9304 14.0253 11.7665 14.317 11.4748C14.6087 11.1831 14.7726 10.7874 14.7726 10.3748V2.59706M0.772614 2.59706L7.77261 7.26373L14.7726 2.59706" stroke="white" stroke-width="1.5" stroke-linecap="round" stroke-linejoin="round"/>
</svg>
