<svg width="12" height="14" viewBox="0 0 12 14" fill="none" xmlns="http://www.w3.org/2000/svg">
<path d="M4.0525 6.26362C4.0525 6.78014 4.25768 7.2755 4.62292 7.64074C4.98815 8.00598 5.48352 8.21116 6.00004 8.21116C6.51657 8.21116 7.01193 8.00598 7.37717 7.64074C7.7424 7.2755 7.94759 6.78014 7.94759 6.26362C7.94759 5.74709 7.7424 5.25173 7.37717 4.88649C7.01193 4.52125 6.51657 4.31607 6.00004 4.31607C5.48352 4.31607 4.98815 4.52125 4.62292 4.88649C4.25768 5.25173 4.0525 5.74709 4.0525 6.26362Z" stroke="#963BFC" stroke-linecap="round" stroke-linejoin="round"/>
<path d="M9.67247 9.93601L6.91799 12.6905C6.67453 12.9337 6.34449 13.0703 6.00037 13.0703C5.65625 13.0703 5.3262 12.9337 5.08275 12.6905L2.32762 9.93601C1.60133 9.20968 1.10672 8.28429 0.906353 7.27687C0.705984 6.26944 0.808848 5.22523 1.20194 4.27626C1.59502 3.3273 2.26068 2.5162 3.11474 1.94555C3.96879 1.3749 4.97289 1.07031 6.00004 1.07031C7.0272 1.07031 8.03129 1.3749 8.88535 1.94555C9.7394 2.5162 10.4051 3.3273 10.7982 4.27626C11.1912 5.22523 11.2941 6.26944 11.0937 7.27687C10.8934 8.28429 10.3988 9.20968 9.67247 9.93601Z" stroke="#963BFC" stroke-linecap="round" stroke-linejoin="round"/>
</svg>
