<svg width="22" height="25" viewBox="0 0 22 25" fill="none" xmlns="http://www.w3.org/2000/svg">
<path d="M3.21582 12.917C3.21582 15.3228 4.05868 17.63 5.55897 19.3312C7.05926 21.0323 9.09409 21.988 11.2158 21.988M3.21582 12.917C3.21582 10.5113 4.05868 8.20405 5.55897 6.50292C7.05926 4.80179 9.09409 3.8461 11.2158 3.8461M3.21582 12.917H1.21582M11.2158 21.988C13.3376 21.988 15.3724 21.0323 16.8727 19.3312C18.373 17.63 19.2158 15.3228 19.2158 12.917M11.2158 21.988V24.2557M19.2158 12.917C19.2158 10.5113 18.373 8.20405 16.8727 6.50292C15.3724 4.80179 13.3376 3.8461 11.2158 3.8461M19.2158 12.917H21.2158M11.2158 3.8461V1.57837M8.21582 12.917C8.21582 13.8192 8.53189 14.6844 9.0945 15.3223C9.65711 15.9603 10.4202 16.3186 11.2158 16.3186C12.0115 16.3186 12.7745 15.9603 13.3371 15.3223C13.8998 14.6844 14.2158 13.8192 14.2158 12.917C14.2158 12.0149 13.8998 11.1497 13.3371 10.5117C12.7745 9.87382 12.0115 9.51544 11.2158 9.51544C10.4202 9.51544 9.65711 9.87382 9.0945 10.5117C8.53189 11.1497 8.21582 12.0149 8.21582 12.917Z" stroke="#963BFC" stroke-width="1.5" stroke-linecap="round" stroke-linejoin="round"/>
</svg>
