<svg width="16" height="14" viewBox="0 0 16 14" fill="none" xmlns="http://www.w3.org/2000/svg">
<path d="M9.89833 3.69363V2.13808C9.89833 1.72552 9.73444 1.32985 9.44272 1.03813C9.15099 0.746408 8.75533 0.58252 8.34277 0.58252H2.89833C2.48577 0.58252 2.09011 0.746408 1.79839 1.03813C1.50666 1.32985 1.34277 1.72552 1.34277 2.13808V11.4714C1.34277 11.884 1.50666 12.2796 1.79839 12.5714C2.09011 12.8631 2.48577 13.027 2.89833 13.027H8.34277C8.75533 13.027 9.15099 12.8631 9.44272 12.5714C9.73444 12.2796 9.89833 11.884 9.89833 11.4714V9.91585M6.00944 6.80474H15.3428M15.3428 6.80474L13.0094 4.47141M15.3428 6.80474L13.0094 9.13808" stroke="#FF0000" stroke-linecap="round" stroke-linejoin="round"/>
</svg>
