<svg width="19" height="16" viewBox="0 0 19 16" fill="none" xmlns="http://www.w3.org/2000/svg">
<path d="M18.2528 4.1349V12.6534C18.2529 13.3421 17.9897 14.0048 17.5173 14.5058C17.0448 15.0069 16.3987 15.3085 15.7112 15.3489L15.5528 15.3534H2.95284C2.26415 15.3534 1.60147 15.0903 1.1004 14.6178C0.599332 14.1454 0.297741 13.4993 0.257338 12.8118L0.252838 12.6534V4.1349L8.75334 9.8022L8.85774 9.8616C8.98077 9.92171 9.1159 9.95296 9.25284 9.95296C9.38977 9.95296 9.5249 9.92171 9.64794 9.8616L9.75234 9.8022L18.2528 4.1349Z" fill="#B7B7B7"/>
<path d="M15.5528 0.953369C16.5248 0.953369 17.3771 1.46637 17.8523 2.23767L9.25284 7.97067L0.653345 2.23767C0.879002 1.87116 1.18904 1.56393 1.55758 1.34161C1.92613 1.1193 2.34249 0.98834 2.77194 0.959669L2.95284 0.953369H15.5528Z" fill="#B7B7B7"/>
<path d="M18.2528 4.1349V12.6534C18.2529 13.3421 17.9897 14.0048 17.5173 14.5058C17.0448 15.0069 16.3987 15.3085 15.7112 15.3489L15.5528 15.3534H2.95284C2.26415 15.3534 1.60147 15.0903 1.1004 14.6178C0.599332 14.1454 0.297741 13.4993 0.257338 12.8118L0.252838 12.6534V4.1349L8.75334 9.8022L8.85774 9.8616C8.98077 9.92171 9.1159 9.95296 9.25284 9.95296C9.38977 9.95296 9.5249 9.92171 9.64794 9.8616L9.75234 9.8022L18.2528 4.1349Z" stroke="black"/>
<path d="M15.5528 0.953369C16.5248 0.953369 17.3771 1.46637 17.8523 2.23767L9.25284 7.97067L0.653345 2.23767C0.879002 1.87116 1.18904 1.56393 1.55758 1.34161C1.92613 1.1193 2.34249 0.98834 2.77194 0.959669L2.95284 0.953369H15.5528Z" stroke="black"/>
</svg>
