<svg width="22" height="25" viewBox="0 0 22 25" fill="none" xmlns="http://www.w3.org/2000/svg">
<path d="M3.21588 12.917C3.21588 15.3228 4.05874 17.63 5.55903 19.3312C7.05932 21.0323 9.09415 21.988 11.2159 21.988M3.21588 12.917C3.21588 10.5113 4.05874 8.20405 5.55903 6.50292C7.05932 4.80179 9.09415 3.8461 11.2159 3.8461M3.21588 12.917H1.21588M11.2159 21.988C13.3376 21.988 15.3724 21.0323 16.8727 19.3312C18.373 17.63 19.2159 15.3228 19.2159 12.917M11.2159 21.988V24.2557M19.2159 12.917C19.2159 10.5113 18.373 8.20405 16.8727 6.50292C15.3724 4.80179 13.3376 3.8461 11.2159 3.8461M19.2159 12.917H21.2159M11.2159 3.8461V1.57837M8.21588 12.917C8.21588 13.8192 8.53195 14.6844 9.09456 15.3223C9.65717 15.9603 10.4202 16.3186 11.2159 16.3186C12.0115 16.3186 12.7746 15.9603 13.3372 15.3223C13.8998 14.6844 14.2159 13.8192 14.2159 12.917C14.2159 12.0149 13.8998 11.1497 13.3372 10.5117C12.7746 9.87382 12.0115 9.51544 11.2159 9.51544C10.4202 9.51544 9.65717 9.87382 9.09456 10.5117C8.53195 11.1497 8.21588 12.0149 8.21588 12.917Z" stroke="#963BFC" stroke-width="1.5" stroke-linecap="round" stroke-linejoin="round"/>
</svg>
