<svg width="15" height="11" viewBox="0 0 15 11" fill="none" xmlns="http://www.w3.org/2000/svg">
<path d="M0.734497 10.2136V8.43174C0.734497 8.07113 0.8273 7.73969 1.01291 7.43742C1.19851 7.13515 1.4451 6.90447 1.75268 6.74537C2.41025 6.41659 3.07844 6.17 3.75722 6.0056C4.43601 5.84121 5.12541 5.75901 5.82541 5.75901C6.52541 5.75901 7.2148 5.84121 7.89359 6.0056C8.57238 6.17 9.24056 6.41659 9.89813 6.74537C10.2057 6.90447 10.4523 7.13515 10.6379 7.43742C10.8235 7.73969 10.9163 8.07113 10.9163 8.43174V10.2136H0.734497ZM12.189 10.2136V8.30447C12.189 7.8378 12.0591 7.38969 11.7993 6.96015C11.5394 6.5306 11.1709 6.16204 10.6936 5.85447C11.2345 5.9181 11.7436 6.02681 12.2209 6.1806C12.6981 6.33439 13.1436 6.52265 13.5572 6.74537C13.939 6.9575 14.2307 7.19348 14.4322 7.45333C14.6337 7.71318 14.7345 7.99689 14.7345 8.30447V10.2136H12.189ZM5.82541 5.12265C5.12541 5.12265 4.52616 4.8734 4.02768 4.37492C3.52919 3.87644 3.27995 3.27719 3.27995 2.57719C3.27995 1.87719 3.52919 1.27795 4.02768 0.779466C4.52616 0.280981 5.12541 0.0317383 5.82541 0.0317383C6.52541 0.0317383 7.12465 0.280981 7.62313 0.779466C8.12162 1.27795 8.37086 1.87719 8.37086 2.57719C8.37086 3.27719 8.12162 3.87644 7.62313 4.37492C7.12465 4.8734 6.52541 5.12265 5.82541 5.12265ZM12.189 2.57719C12.189 3.27719 11.9398 3.87644 11.4413 4.37492C10.9428 4.8734 10.3436 5.12265 9.64359 5.12265C9.52692 5.12265 9.37844 5.10939 9.19813 5.08287C9.01783 5.05636 8.86935 5.02719 8.75268 4.99537C9.03904 4.65598 9.25912 4.27947 9.41291 3.86583C9.56669 3.45219 9.64359 3.02265 9.64359 2.57719C9.64359 2.13174 9.56669 1.70219 9.41291 1.28856C9.25912 0.87492 9.03904 0.498405 8.75268 0.159011C8.90116 0.105981 9.04965 0.071511 9.19813 0.0556019C9.34662 0.0396928 9.4951 0.0317383 9.64359 0.0317383C10.3436 0.0317383 10.9428 0.280981 11.4413 0.779466C11.9398 1.27795 12.189 1.87719 12.189 2.57719ZM2.00722 8.94083H9.64359V8.43174C9.64359 8.31507 9.61442 8.20901 9.55609 8.11356C9.49775 8.0181 9.42086 7.94386 9.32541 7.89083C8.75268 7.60447 8.17465 7.38969 7.59132 7.24651C7.00798 7.10333 6.41935 7.03174 5.82541 7.03174C5.23147 7.03174 4.64283 7.10333 4.0595 7.24651C3.47616 7.38969 2.89813 7.60447 2.32541 7.89083C2.22995 7.94386 2.15306 8.0181 2.09472 8.11356C2.03639 8.20901 2.00722 8.31507 2.00722 8.43174V8.94083ZM5.82541 3.84992C6.17541 3.84992 6.47503 3.7253 6.72427 3.47606C6.97351 3.22681 7.09813 2.92719 7.09813 2.57719C7.09813 2.22719 6.97351 1.92757 6.72427 1.67833C6.47503 1.42909 6.17541 1.30447 5.82541 1.30447C5.47541 1.30447 5.17579 1.42909 4.92654 1.67833C4.6773 1.92757 4.55268 2.22719 4.55268 2.57719C4.55268 2.92719 4.6773 3.22681 4.92654 3.47606C5.17579 3.7253 5.47541 3.84992 5.82541 3.84992Z" fill="#B7B7B7"/>
</svg>
