<svg width="19" height="19" viewBox="0 0 19 19" fill="none" xmlns="http://www.w3.org/2000/svg">
<path d="M2.65137 8.64038H6.65137C7.75137 8.64038 8.65137 7.74038 8.65137 6.64038V2.64038C8.65137 1.54038 7.75137 0.640381 6.65137 0.640381H2.65137C1.55137 0.640381 0.651367 1.54038 0.651367 2.64038V6.64038C0.651367 7.74038 1.55137 8.64038 2.65137 8.64038ZM2.65137 2.64038H6.65137V6.64038H2.65137V2.64038Z" fill="white"/>
<path d="M2.65137 18.6404H6.65137C7.75137 18.6404 8.65137 17.7404 8.65137 16.6404V12.6404C8.65137 11.5404 7.75137 10.6404 6.65137 10.6404H2.65137C1.55137 10.6404 0.651367 11.5404 0.651367 12.6404V16.6404C0.651367 17.7404 1.55137 18.6404 2.65137 18.6404ZM2.65137 12.6404H6.65137V16.6404H2.65137V12.6404Z" fill="white"/>
<path d="M10.6514 2.64038V6.64038C10.6514 7.74038 11.5514 8.64038 12.6514 8.64038H16.6514C17.7514 8.64038 18.6514 7.74038 18.6514 6.64038V2.64038C18.6514 1.54038 17.7514 0.640381 16.6514 0.640381H12.6514C11.5514 0.640381 10.6514 1.54038 10.6514 2.64038ZM16.6514 6.64038H12.6514V2.64038H16.6514V6.64038Z" fill="white"/>
<path d="M18.6514 18.1404V17.1404C18.6514 16.8604 18.4314 16.6404 18.1514 16.6404H17.1514C16.8714 16.6404 16.6514 16.8604 16.6514 17.1404V18.1404C16.6514 18.4204 16.8714 18.6404 17.1514 18.6404H18.1514C18.4314 18.6404 18.6514 18.4204 18.6514 18.1404Z" fill="white"/>
<path d="M10.6514 11.1404V12.1404C10.6514 12.4204 10.8714 12.6404 11.1514 12.6404H12.1514C12.4314 12.6404 12.6514 12.4204 12.6514 12.1404V11.1404C12.6514 10.8604 12.4314 10.6404 12.1514 10.6404H11.1514C10.8714 10.6404 10.6514 10.8604 10.6514 11.1404Z" fill="white"/>
<path d="M14.1514 12.6404H13.1514C12.8714 12.6404 12.6514 12.8604 12.6514 13.1404V14.1404C12.6514 14.4204 12.8714 14.6404 13.1514 14.6404H14.1514C14.4314 14.6404 14.6514 14.4204 14.6514 14.1404V13.1404C14.6514 12.8604 14.4314 12.6404 14.1514 12.6404Z" fill="white"/>
<path d="M10.6514 15.1404V16.1404C10.6514 16.4204 10.8714 16.6404 11.1514 16.6404H12.1514C12.4314 16.6404 12.6514 16.4204 12.6514 16.1404V15.1404C12.6514 14.8604 12.4314 14.6404 12.1514 14.6404H11.1514C10.8714 14.6404 10.6514 14.8604 10.6514 15.1404Z" fill="white"/>
<path d="M13.1514 18.6404H14.1514C14.4314 18.6404 14.6514 18.4204 14.6514 18.1404V17.1404C14.6514 16.8604 14.4314 16.6404 14.1514 16.6404H13.1514C12.8714 16.6404 12.6514 16.8604 12.6514 17.1404V18.1404C12.6514 18.4204 12.8714 18.6404 13.1514 18.6404Z" fill="white"/>
<path d="M15.1514 16.6404H16.1514C16.4314 16.6404 16.6514 16.4204 16.6514 16.1404V15.1404C16.6514 14.8604 16.4314 14.6404 16.1514 14.6404H15.1514C14.8714 14.6404 14.6514 14.8604 14.6514 15.1404V16.1404C14.6514 16.4204 14.8714 16.6404 15.1514 16.6404Z" fill="white"/>
<path d="M16.1514 10.6404H15.1514C14.8714 10.6404 14.6514 10.8604 14.6514 11.1404V12.1404C14.6514 12.4204 14.8714 12.6404 15.1514 12.6404H16.1514C16.4314 12.6404 16.6514 12.4204 16.6514 12.1404V11.1404C16.6514 10.8604 16.4314 10.6404 16.1514 10.6404Z" fill="white"/>
<path d="M17.1514 14.6404H18.1514C18.4314 14.6404 18.6514 14.4204 18.6514 14.1404V13.1404C18.6514 12.8604 18.4314 12.6404 18.1514 12.6404H17.1514C16.8714 12.6404 16.6514 12.8604 16.6514 13.1404V14.1404C16.6514 14.4204 16.8714 14.6404 17.1514 14.6404Z" fill="white"/>
</svg>
