<svg width="13" height="13" viewBox="0 0 13 13" fill="none" xmlns="http://www.w3.org/2000/svg">
<g clip-path="url(#clip0_2004_6422)">
<path d="M6.62891 0.45166C3.21529 0.45166 0.444824 3.22213 0.444824 6.63574C0.444824 10.0494 3.21529 12.8198 6.62891 12.8198C10.0425 12.8198 12.813 10.0494 12.813 6.63574C12.813 3.22213 10.0425 0.45166 6.62891 0.45166ZM6.62891 11.583C3.89554 11.583 1.68164 9.36911 1.68164 6.63574C1.68164 3.90238 3.89554 1.68848 6.62891 1.68848C9.36227 1.68848 11.5762 3.90238 11.5762 6.63574C11.5762 9.36911 9.36227 11.583 6.62891 11.583Z" fill="#FF0000"/>
<g clip-path="url(#clip1_2004_6422)">
<path d="M6.62885 7.59446L4.60669 9.61662C4.47885 9.74445 4.31615 9.80837 4.11858 9.80837C3.92102 9.80837 3.75831 9.74445 3.63048 9.61662C3.50264 9.48878 3.43872 9.32608 3.43872 9.12851C3.43872 8.93094 3.50264 8.76824 3.63048 8.6404L5.65263 6.61825L3.63048 4.61353C3.50264 4.48569 3.43872 4.32299 3.43872 4.12542C3.43872 3.92785 3.50264 3.76515 3.63048 3.63731C3.75831 3.50947 3.92102 3.44556 4.11858 3.44556C4.31615 3.44556 4.47885 3.50947 4.60669 3.63731L6.62885 5.65947L8.63357 3.63731C8.76141 3.50947 8.92411 3.44556 9.12168 3.44556C9.31924 3.44556 9.48194 3.50947 9.60978 3.63731C9.74924 3.77677 9.81897 3.94238 9.81897 4.13414C9.81897 4.32589 9.74924 4.48569 9.60978 4.61353L7.58763 6.61825L9.60978 8.6404C9.73762 8.76824 9.80154 8.93094 9.80154 9.12851C9.80154 9.32608 9.73762 9.48878 9.60978 9.61662C9.47032 9.75608 9.30471 9.82581 9.11296 9.82581C8.9212 9.82581 8.76141 9.75608 8.63357 9.61662L6.62885 7.59446Z" fill="#FF0000"/>
</g>
</g>
<defs>
<clipPath id="clip0_2004_6422">
<rect width="13" height="13" fill="white"/>
</clipPath>
<clipPath id="clip1_2004_6422">
<rect width="7" height="7" fill="white" transform="translate(3 3)"/>
</clipPath>
</defs>
</svg>
