<svg width="16" height="16" viewBox="0 0 16 16" fill="none" xmlns="http://www.w3.org/2000/svg">
<path d="M6.44444 7.53082V5.97526C6.44444 5.5627 6.60833 5.16704 6.90006 4.87532C7.19178 4.58359 7.58744 4.4197 8 4.4197C8.41256 4.4197 8.80822 4.58359 9.09994 4.87532C9.39167 5.16704 9.55556 5.5627 9.55556 5.97526V7.53082M8 1.30859C13.6 1.30859 15 2.70859 15 8.30859C15 13.9086 13.6 15.3086 8 15.3086C2.4 15.3086 1 13.9086 1 8.30859C1 2.70859 2.4 1.30859 8 1.30859ZM4.88889 8.30859C4.88889 8.10231 4.97083 7.90448 5.11669 7.75862C5.26256 7.61276 5.46039 7.53082 5.66667 7.53082H10.3333C10.5396 7.53082 10.7374 7.61276 10.8833 7.75862C11.0292 7.90448 11.1111 8.10231 11.1111 8.30859V10.6419C11.1111 10.8482 11.0292 11.046 10.8833 11.1919C10.7374 11.3378 10.5396 11.4197 10.3333 11.4197H5.66667C5.46039 11.4197 5.26256 11.3378 5.11669 11.1919C4.97083 11.046 4.88889 10.8482 4.88889 10.6419V8.30859Z" stroke="white" stroke-linecap="round" stroke-linejoin="round"/>
</svg>
