<svg width="13" height="14" viewBox="0 0 13 14" fill="none" xmlns="http://www.w3.org/2000/svg">
<path d="M10.4944 13.8927C9.93883 13.8927 9.46661 13.6982 9.07772 13.3093C8.68883 12.9204 8.49438 12.4482 8.49438 11.8927C8.49438 11.8149 8.49994 11.7343 8.51105 11.651C8.52216 11.5677 8.53883 11.4927 8.56105 11.426L3.86105 8.69266C3.67216 8.85933 3.46105 8.98988 3.22772 9.08433C2.99439 9.17877 2.74994 9.22599 2.49438 9.22599C1.93883 9.22599 1.46661 9.03155 1.07772 8.64266C0.688829 8.25377 0.494385 7.78155 0.494385 7.22599C0.494385 6.67044 0.688829 6.19821 1.07772 5.80933C1.46661 5.42044 1.93883 5.22599 2.49438 5.22599C2.74994 5.22599 2.99439 5.27321 3.22772 5.36766C3.46105 5.4621 3.67216 5.59266 3.86105 5.75933L8.56105 3.02599C8.53883 2.95933 8.52216 2.88433 8.51105 2.80099C8.49994 2.71766 8.49438 2.6371 8.49438 2.55933C8.49438 2.00377 8.68883 1.53155 9.07772 1.14266C9.46661 0.753771 9.93883 0.559326 10.4944 0.559326C11.0499 0.559326 11.5222 0.753771 11.9111 1.14266C12.2999 1.53155 12.4944 2.00377 12.4944 2.55933C12.4944 3.11488 12.2999 3.5871 11.9111 3.97599C11.5222 4.36488 11.0499 4.55933 10.4944 4.55933C10.2388 4.55933 9.99439 4.5121 9.76105 4.41766C9.52772 4.32321 9.31661 4.19266 9.12772 4.02599L4.42772 6.75933C4.44994 6.82599 4.46661 6.90099 4.47772 6.98433C4.48883 7.06766 4.49438 7.14821 4.49438 7.22599C4.49438 7.30377 4.48883 7.38433 4.47772 7.46766C4.46661 7.55099 4.44994 7.62599 4.42772 7.69266L9.12772 10.426C9.31661 10.2593 9.52772 10.1288 9.76105 10.0343C9.99439 9.93988 10.2388 9.89266 10.4944 9.89266C11.0499 9.89266 11.5222 10.0871 11.9111 10.476C12.2999 10.8649 12.4944 11.3371 12.4944 11.8927C12.4944 12.4482 12.2999 12.9204 11.9111 13.3093C11.5222 13.6982 11.0499 13.8927 10.4944 13.8927ZM10.4944 3.22599C10.6833 3.22599 10.8416 3.1621 10.9694 3.03433C11.0972 2.90655 11.1611 2.74821 11.1611 2.55933C11.1611 2.37044 11.0972 2.2121 10.9694 2.08433C10.8416 1.95655 10.6833 1.89266 10.4944 1.89266C10.3055 1.89266 10.1472 1.95655 10.0194 2.08433C9.89161 2.2121 9.82772 2.37044 9.82772 2.55933C9.82772 2.74821 9.89161 2.90655 10.0194 3.03433C10.1472 3.1621 10.3055 3.22599 10.4944 3.22599ZM2.49438 7.89266C2.68327 7.89266 2.84161 7.82877 2.96938 7.70099C3.09716 7.57321 3.16105 7.41488 3.16105 7.22599C3.16105 7.0371 3.09716 6.87877 2.96938 6.75099C2.84161 6.62321 2.68327 6.55933 2.49438 6.55933C2.3055 6.55933 2.14716 6.62321 2.01938 6.75099C1.89161 6.87877 1.82772 7.0371 1.82772 7.22599C1.82772 7.41488 1.89161 7.57321 2.01938 7.70099C2.14716 7.82877 2.3055 7.89266 2.49438 7.89266ZM10.4944 12.5593C10.6833 12.5593 10.8416 12.4954 10.9694 12.3677C11.0972 12.2399 11.1611 12.0815 11.1611 11.8927C11.1611 11.7038 11.0972 11.5454 10.9694 11.4177C10.8416 11.2899 10.6833 11.226 10.4944 11.226C10.3055 11.226 10.1472 11.2899 10.0194 11.4177C9.89161 11.5454 9.82772 11.7038 9.82772 11.8927C9.82772 12.0815 9.89161 12.2399 10.0194 12.3677C10.1472 12.4954 10.3055 12.5593 10.4944 12.5593Z" fill="#B7B7B7"/>
</svg>
