<svg width="19" height="21" viewBox="0 0 19 21" fill="none" xmlns="http://www.w3.org/2000/svg">
<path d="M9.277 0.737305L9.38334 0.744305L9.4365 0.752305L9.49147 0.765305L9.5915 0.799305C9.66059 0.827568 9.72627 0.865186 9.78705 0.911305L9.88077 0.993305L10.1106 1.2113C11.9285 2.88687 14.226 3.78661 16.5889 3.7483L16.8971 3.7383C17.0986 3.7281 17.2974 3.79321 17.4616 3.9232C17.6258 4.0532 17.7459 4.24056 17.8028 4.4553C18.2456 6.12688 18.3811 7.88018 18.2013 9.61102C18.0214 11.3419 17.5298 13.0149 16.7558 14.5308C15.9817 16.0466 14.941 17.3744 13.6954 18.4351C12.4498 19.4958 11.0248 20.2678 9.50499 20.7053C9.35665 20.748 9.20095 20.748 9.05261 20.7053C7.53275 20.2679 6.10762 19.496 4.86193 18.4353C3.61623 17.3747 2.57539 16.0469 1.80125 14.5311C1.02711 13.0152 0.535469 11.3421 0.355548 9.61121C0.175628 7.88032 0.311098 6.12695 0.753907 4.4553C0.810779 4.24056 0.930929 4.0532 1.09513 3.9232C1.25932 3.79321 1.45807 3.7281 1.65956 3.7383C4.12643 3.86344 6.54657 2.96229 8.44614 1.2113L8.68314 0.986305L8.76965 0.911305C8.83043 0.865186 8.89611 0.827568 8.9652 0.799305L9.06613 0.765305C9.10145 0.755838 9.13726 0.748825 9.17337 0.744305L9.277 0.737305ZM9.2788 7.7373C8.8241 7.73714 8.38615 7.92771 8.05274 8.2708C7.71933 8.61389 7.51511 9.08415 7.481 9.58731L7.4765 9.7373L7.481 9.8873C7.50322 10.2119 7.59651 10.5256 7.75277 10.8011C7.90903 11.0766 8.12353 11.3057 8.37765 11.4683V13.2373L8.38396 13.3543C8.41109 13.6074 8.52428 13.8394 8.70041 14.003C8.87655 14.1666 9.10232 14.2494 9.33161 14.2345C9.5609 14.2195 9.7764 14.108 9.93408 13.9227C10.0917 13.7373 10.1797 13.4922 10.18 13.2373L10.1809 11.4693C10.5245 11.2491 10.793 10.9092 10.9448 10.5024C11.0966 10.0955 11.1232 9.64448 11.0204 9.21918C10.9176 8.79387 10.6912 8.4181 10.3763 8.15017C10.0614 7.88223 9.67561 7.7371 9.2788 7.7373Z" fill="#B7B7B7"/>
</svg>
