<svg width="17" height="16" viewBox="0 0 17 16" fill="none" xmlns="http://www.w3.org/2000/svg">
<path fill-rule="evenodd" clip-rule="evenodd" d="M6.07058 13.8884C5.73253 14.0649 5.32357 14.0338 5.01606 13.8083C4.70855 13.5828 4.55597 13.2021 4.62265 12.8267L5.1622 9.73404L2.89059 7.55714C2.61293 7.29234 2.51117 6.89207 2.62865 6.52681C2.74614 6.16156 3.06218 5.89568 3.44215 5.84242L6.59613 5.39157L8.02006 2.55105C8.18889 2.21039 8.53623 1.99487 8.91643 1.99487C9.29664 1.99487 9.64398 2.21039 9.81281 2.55105L11.2367 5.39157L14.3907 5.84242C14.7707 5.89568 15.0867 6.16156 15.2042 6.52681C15.3217 6.89207 15.2199 7.29234 14.9423 7.55714L12.6707 9.73404L13.2102 12.8273C13.2769 13.2028 13.1243 13.5835 12.8168 13.809C12.5093 14.0345 12.1003 14.0656 11.7623 13.8891L8.91643 12.4185L6.07058 13.8884Z" fill="#FBBF24"/>
</svg>
