<svg width="16" height="13" viewBox="0 0 16 13" fill="none" xmlns="http://www.w3.org/2000/svg">
<path d="M10.3333 0.864258V2.41981M10.3333 5.53092V7.08648M10.3333 10.1976V11.7531M2.55556 0.864258H13.4444C13.857 0.864258 14.2527 1.02815 14.5444 1.31987C14.8361 1.61159 15 2.00725 15 2.41981V4.75315C14.5874 4.75315 14.1918 4.91704 13.9001 5.20876C13.6083 5.50048 13.4444 5.89614 13.4444 6.3087C13.4444 6.72126 13.6083 7.11692 13.9001 7.40865C14.1918 7.70037 14.5874 7.86426 15 7.86426V10.1976C15 10.6102 14.8361 11.0058 14.5444 11.2975C14.2527 11.5893 13.857 11.7531 13.4444 11.7531H2.55556C2.143 11.7531 1.74733 11.5893 1.45561 11.2975C1.16389 11.0058 1 10.6102 1 10.1976V7.86426C1.41256 7.86426 1.80822 7.70037 2.09994 7.40865C2.39167 7.11692 2.55556 6.72126 2.55556 6.3087C2.55556 5.89614 2.39167 5.50048 2.09994 5.20876C1.80822 4.91704 1.41256 4.75315 1 4.75315V2.41981C1 2.00725 1.16389 1.61159 1.45561 1.31987C1.74733 1.02815 2.143 0.864258 2.55556 0.864258Z" stroke="white" stroke-linecap="round" stroke-linejoin="round"/>
</svg>
