<svg width="20" height="19" viewBox="0 0 20 19" fill="none" xmlns="http://www.w3.org/2000/svg">
<path d="M13.0286 1.70166V3.96939M13.0286 8.50486V10.7726M13.0286 15.3081V17.5758M3.02856 1.70166H17.0286C17.559 1.70166 18.0677 1.94058 18.4428 2.36586C18.8179 2.79115 19.0286 3.36795 19.0286 3.96939V7.371C18.4981 7.371 17.9894 7.60992 17.6144 8.0352C17.2393 8.46048 17.0286 9.03729 17.0286 9.63873C17.0286 10.2402 17.2393 10.817 17.6144 11.2423C17.9894 11.6675 18.4981 11.9065 19.0286 11.9065V15.3081C19.0286 15.9095 18.8179 16.4863 18.4428 16.9116C18.0677 17.3369 17.559 17.5758 17.0286 17.5758H3.02856C2.49813 17.5758 1.98942 17.3369 1.61435 16.9116C1.23928 16.4863 1.02856 15.9095 1.02856 15.3081V11.9065C1.559 11.9065 2.06771 11.6675 2.44278 11.2423C2.81785 10.817 3.02856 10.2402 3.02856 9.63873C3.02856 9.03729 2.81785 8.46048 2.44278 8.0352C2.06771 7.60992 1.559 7.371 1.02856 7.371V3.96939C1.02856 3.36795 1.23928 2.79115 1.61435 2.36586C1.98942 1.94058 2.49813 1.70166 3.02856 1.70166Z" stroke="#963BFC" stroke-width="1.5" stroke-linecap="round" stroke-linejoin="round"/>
</svg>
