<svg width="15" height="14" viewBox="0 0 15 14" fill="none" xmlns="http://www.w3.org/2000/svg">
<path d="M7.8606 13.2138C7.039 13.2138 6.26944 13.0577 5.55191 12.7455C4.83438 12.4333 4.20997 12.0116 3.67867 11.4803C3.14737 10.949 2.72562 10.3246 2.41341 9.60703C2.10121 8.8895 1.9451 8.11994 1.9451 7.29834C1.9451 6.47674 2.10121 5.70718 2.41341 4.98965C2.72562 4.27213 3.14737 3.64771 3.67867 3.11641C4.20997 2.58512 4.83438 2.16336 5.55191 1.85116C6.26944 1.53895 7.039 1.38285 7.8606 1.38285C8.68219 1.38285 9.45175 1.53895 10.1693 1.85116C10.8868 2.16336 11.5112 2.58512 12.0425 3.11641C12.5738 3.64771 12.9956 4.27213 13.3078 4.98965C13.62 5.70718 13.7761 6.47674 13.7761 7.29834C13.7761 8.11994 13.62 8.8895 13.3078 9.60703C12.9956 10.3246 12.5738 10.949 12.0425 11.4803C11.5112 12.0116 10.8868 12.4333 10.1693 12.7455C9.45175 13.0577 8.68219 13.2138 7.8606 13.2138ZM9.70097 10.0589L10.6212 9.13871L8.51787 7.03543V4.01195H7.20332V7.56125L9.70097 10.0589ZM3.65402 0.29834L4.57421 1.21853L1.78078 4.01195L0.860596 3.09177L3.65402 0.29834ZM12.0672 0.29834L14.8606 3.09177L13.9404 4.01195L11.147 1.21853L12.0672 0.29834ZM7.8606 11.8993C9.14229 11.8993 10.2295 11.4529 11.1223 10.5601C12.0151 9.66728 12.4615 8.58003 12.4615 7.29834C12.4615 6.01665 12.0151 4.9294 11.1223 4.0366C10.2295 3.1438 9.14229 2.6974 7.8606 2.6974C6.57891 2.6974 5.49166 3.1438 4.59886 4.0366C3.70606 4.9294 3.25966 6.01665 3.25966 7.29834C3.25966 8.58003 3.70606 9.66728 4.59886 10.5601C5.49166 11.4529 6.57891 11.8993 7.8606 11.8993Z" fill="#B7B7B7"/>
</svg>
