<svg width="16" height="19" viewBox="0 0 16 19" fill="none" xmlns="http://www.w3.org/2000/svg">
<path d="M9.70438 14.5193H14.757M12.2307 11.993V17.0457M1.28333 16.2035V14.5193C1.28333 13.626 1.63821 12.7692 2.26991 12.1375C2.90161 11.5058 3.75839 11.1509 4.65175 11.1509H8.02017M2.96754 4.41408C2.96754 5.30744 3.32242 6.16421 3.95412 6.79591C4.58582 7.42761 5.4426 7.7825 6.33596 7.7825C7.22932 7.7825 8.08609 7.42761 8.71779 6.79591C9.34949 6.16421 9.70438 5.30744 9.70438 4.41408C9.70438 3.52071 9.34949 2.66394 8.71779 2.03224C8.08609 1.40054 7.22932 1.04565 6.33596 1.04565C5.4426 1.04565 4.58582 1.40054 3.95412 2.03224C3.32242 2.66394 2.96754 3.52071 2.96754 4.41408Z" stroke="white" stroke-width="2" stroke-linecap="round" stroke-linejoin="round"/>
</svg>
