<svg width="26" height="26" viewBox="0 0 26 26" fill="none" xmlns="http://www.w3.org/2000/svg">
<path d="M0.775116 7.1731V4.1731C0.775116 3.37745 1.09119 2.61438 1.6538 2.05178C2.2164 1.48917 2.97947 1.1731 3.77512 1.1731H6.77512M0.775116 19.1731V22.1731C0.775116 22.9687 1.09119 23.7318 1.6538 24.2944C2.2164 24.857 2.97947 25.1731 3.77512 25.1731H6.77512M18.7751 1.1731H21.7751C22.5708 1.1731 23.3338 1.48917 23.8964 2.05178C24.459 2.61438 24.7751 3.37745 24.7751 4.1731V7.1731M18.7751 25.1731H21.7751C22.5708 25.1731 23.3338 24.857 23.8964 24.2944C24.459 23.7318 24.7751 22.9687 24.7751 22.1731V19.1731M6.77512 19.1731C6.77512 18.3774 7.09119 17.6144 7.6538 17.0518C8.21641 16.4892 8.97947 16.1731 9.77512 16.1731H15.7751C16.5708 16.1731 17.3338 16.4892 17.8964 17.0518C18.459 17.6144 18.7751 18.3774 18.7751 19.1731M9.77512 8.6731C9.77512 9.46875 10.0912 10.2318 10.6538 10.7944C11.2164 11.357 11.9795 11.6731 12.7751 11.6731C13.5708 11.6731 14.3338 11.357 14.8964 10.7944C15.459 10.2318 15.7751 9.46875 15.7751 8.6731C15.7751 7.87745 15.459 7.11438 14.8964 6.55178C14.3338 5.98917 13.5708 5.6731 12.7751 5.6731C11.9795 5.6731 11.2164 5.98917 10.6538 6.55178C10.0912 7.11438 9.77512 7.87745 9.77512 8.6731Z" stroke="#B7B7B7" stroke-width="1.5" stroke-linecap="round" stroke-linejoin="round"/>
</svg>
