<svg width="16" height="16" viewBox="0 0 16 16" fill="none" xmlns="http://www.w3.org/2000/svg">
<path d="M3.33333 14.5697V14.5308C3.33333 13.7057 3.66111 12.9144 4.24456 12.3309C4.828 11.7475 5.61933 11.4197 6.44444 11.4197H9.55556C10.3807 11.4197 11.172 11.7475 11.7554 12.3309C12.3389 12.9144 12.6667 13.7057 12.6667 14.5308V14.5697M8 9.08637C8.61884 9.08637 9.21233 8.84054 9.64992 8.40295C10.0875 7.96537 10.3333 7.37188 10.3333 6.75304C10.3333 6.1342 10.0875 5.54071 9.64992 5.10312C9.21233 4.66554 8.61884 4.4197 8 4.4197C7.38116 4.4197 6.78767 4.66554 6.35008 5.10312C5.9125 5.54071 5.66667 6.1342 5.66667 6.75304C5.66667 7.37188 5.9125 7.96537 6.35008 8.40295C6.78767 8.84054 7.38116 9.08637 8 9.08637ZM8 1.30859C13.6 1.30859 15 2.70859 15 8.30859C15 13.9086 13.6 15.3086 8 15.3086C2.4 15.3086 1 13.9086 1 8.30859C1 2.70859 2.4 1.30859 8 1.30859Z" stroke="white" stroke-linecap="round" stroke-linejoin="round"/>
</svg>
