<svg width="12" height="11" viewBox="0 0 12 11" fill="none" xmlns="http://www.w3.org/2000/svg">
<g clip-path="url(#clip0_229_1850)">
<path d="M1.00009 11.1816V9.39978C1.00009 9.03917 1.0929 8.70773 1.27851 8.40546C1.46411 8.10319 1.7107 7.87251 2.01828 7.71341C2.67585 7.38463 3.34404 7.13804 4.02282 6.97364C4.70161 6.80925 5.39101 6.72705 6.09101 6.72705C6.79101 6.72705 7.4804 6.80925 8.15919 6.97364C8.83798 7.13804 9.50616 7.38463 10.1637 7.71341C10.4713 7.87251 10.7179 8.10319 10.9035 8.40546C11.0891 8.70773 11.1819 9.03917 11.1819 9.39978V11.1816H1.00009ZM6.09101 6.09069C5.39101 6.09069 4.79176 5.84144 4.29328 5.34296C3.79479 4.84448 3.54555 4.24523 3.54555 3.54523C3.54555 2.84523 3.79479 2.24599 4.29328 1.74751C4.79176 1.24902 5.39101 0.999779 6.09101 0.999779C6.79101 0.999779 7.39025 1.24902 7.88873 1.74751C8.38722 2.24599 8.63646 2.84523 8.63646 3.54523C8.63646 4.24523 8.38722 4.84448 7.88873 5.34296C7.39025 5.84144 6.79101 6.09069 6.09101 6.09069ZM2.27282 9.90887H9.90919V9.39978C9.90919 9.28311 9.88002 9.17705 9.82169 9.0816C9.76335 8.98614 9.68646 8.9119 9.59101 8.85887C9.01828 8.57251 8.44025 8.35773 7.85692 8.21455C7.27358 8.07137 6.68495 7.99978 6.09101 7.99978C5.49707 7.99978 4.90843 8.07137 4.3251 8.21455C3.74176 8.35773 3.16373 8.57251 2.59101 8.85887C2.49555 8.9119 2.41866 8.98614 2.36032 9.0816C2.30199 9.17705 2.27282 9.28311 2.27282 9.39978V9.90887ZM6.09101 4.81796C6.44101 4.81796 6.74063 4.69334 6.98987 4.4441C7.23911 4.19485 7.36373 3.89523 7.36373 3.54523C7.36373 3.19523 7.23911 2.89561 6.98987 2.64637C6.74063 2.39713 6.44101 2.27251 6.09101 2.27251C5.74101 2.27251 5.44139 2.39713 5.19214 2.64637C4.9429 2.89561 4.81828 3.19523 4.81828 3.54523C4.81828 3.89523 4.9429 4.19485 5.19214 4.4441C5.44139 4.69334 5.74101 4.81796 6.09101 4.81796Z" fill="#B7B7B7"/>
<rect x="4" y="2" width="4" height="3" rx="1" fill="#B7B7B7"/>
<rect x="2" y="8" width="8" height="3" rx="1" fill="#B7B7B7"/>
</g>
<defs>
<clipPath id="clip0_229_1850">
<rect width="12" height="11" fill="white"/>
</clipPath>
</defs>
</svg>
